<svg>
    <symbol id="facebook"
            width="62"
            height="62"
            viewBox="0 0 62 62"
            fill="none"
            xmlns="http://www.w3.org/2000/svg">
        <circle cx="31"
                cy="31"
                r="30"
                stroke="white"
                stroke-opacity="0.2" />
        <path d="M28.8516 41.9839V33.0386H25.8438V29.4839H28.8516V26.6714C28.8516 25.187 29.2682 24.0412 30.1016 23.2339C30.9349 22.4006 32.0417 21.9839 33.4219 21.9839C34.5417 21.9839 35.4531 22.036 36.1562 22.1401V25.3042H34.2812C33.5781 25.3042 33.0964 25.4604 32.8359 25.7729C32.6276 26.0334 32.5234 26.45 32.5234 27.0229V29.4839H35.8438L35.375 33.0386H32.5234V41.9839H28.8516Z"
              fill="white" />
    </symbol>
    <symbol id="twitter"
            width="20"
            height="18"
            viewBox="0 0 20 18"
            fill="none"
            xmlns="http://www.w3.org/2000/svg">
        <path d="M17.9297 4.92139C17.9557 5.02555 17.9688 5.19482 17.9688 5.4292C17.9688 7.3042 17.513 9.1141 16.6016 10.8589C15.6641 12.7078 14.349 14.1792 12.6562 15.2729C10.8073 16.4969 8.6849 17.1089 6.28906 17.1089C3.9974 17.1089 1.90104 16.4969 0 15.2729C0.286458 15.299 0.611979 15.312 0.976562 15.312C2.8776 15.312 4.58333 14.7261 6.09375 13.5542C5.18229 13.5542 4.375 13.2938 3.67188 12.7729C2.99479 12.2261 2.52604 11.549 2.26562 10.7417C2.52604 10.7677 2.77344 10.7808 3.00781 10.7808C3.3724 10.7808 3.73698 10.7417 4.10156 10.6636C3.16406 10.4552 2.38281 9.97347 1.75781 9.21826C1.13281 8.46305 0.820312 7.60368 0.820312 6.64014V6.56201C1.39323 6.90055 2.00521 7.08285 2.65625 7.10889C2.10938 6.71826 1.66667 6.22347 1.32812 5.62451C0.989583 5.02555 0.820312 4.37451 0.820312 3.67139C0.820312 2.94222 1.01562 2.25212 1.40625 1.60107C2.42188 2.87712 3.65885 3.89274 5.11719 4.64795C6.60156 5.40316 8.17708 5.81982 9.84375 5.89795C9.79167 5.58545 9.76562 5.27295 9.76562 4.96045C9.76562 4.23128 9.94792 3.5542 10.3125 2.9292C10.6771 2.27816 11.1719 1.77035 11.7969 1.40576C12.4219 1.04118 13.099 0.858887 13.8281 0.858887C14.4271 0.858887 14.974 0.976074 15.4688 1.21045C15.9896 1.44482 16.4453 1.75732 16.8359 2.14795C17.7734 1.96566 18.6458 1.64014 19.4531 1.17139C19.1406 2.13493 18.5417 2.89014 17.6562 3.43701C18.4375 3.33285 19.2188 3.11149 20 2.77295C19.4271 3.60628 18.737 4.32243 17.9297 4.92139Z"
              fill="white" />
    </symbol>
    <symbol id="inst"
            width="62"
            height="62"
            viewBox="0 0 62 62"
            fill="none"
            xmlns="http://www.w3.org/2000/svg">
        <circle cx="31"
                cy="31"
                r="30"
                stroke="white"
                stroke-opacity="0.2" />
        <path d="M31 27.4917C30.1927 27.4917 29.4375 27.7 28.7344 28.1167C28.0573 28.5073 27.5104 29.0542 27.0938 29.7573C26.7031 30.4344 26.5078 31.1766 26.5078 31.9839C26.5078 32.7912 26.7031 33.5464 27.0938 34.2495C27.5104 34.9266 28.0573 35.4735 28.7344 35.8901C29.4375 36.2808 30.1927 36.4761 31 36.4761C31.8073 36.4761 32.5495 36.2808 33.2266 35.8901C33.9297 35.4735 34.4766 34.9266 34.8672 34.2495C35.2839 33.5464 35.4922 32.7912 35.4922 31.9839C35.4922 31.1766 35.2839 30.4344 34.8672 29.7573C34.4766 29.0542 33.9297 28.5073 33.2266 28.1167C32.5495 27.7 31.8073 27.4917 31 27.4917ZM31 34.9136C30.1927 34.9136 29.5026 34.6271 28.9297 34.0542C28.3568 33.4813 28.0703 32.7912 28.0703 31.9839C28.0703 31.1766 28.3568 30.4865 28.9297 29.9136C29.5026 29.3407 30.1927 29.0542 31 29.0542C31.8073 29.0542 32.4974 29.3407 33.0703 29.9136C33.6432 30.4865 33.9297 31.1766 33.9297 31.9839C33.9297 32.7912 33.6432 33.4813 33.0703 34.0542C32.4974 34.6271 31.8073 34.9136 31 34.9136ZM36.7422 27.2964C36.7161 27.5828 36.599 27.8302 36.3906 28.0386C36.2083 28.2469 35.974 28.3511 35.6875 28.3511C35.401 28.3511 35.1536 28.2469 34.9453 28.0386C34.737 27.8302 34.6328 27.5828 34.6328 27.2964C34.6328 27.0099 34.737 26.7625 34.9453 26.5542C35.1536 26.3459 35.401 26.2417 35.6875 26.2417C35.974 26.2417 36.2214 26.3459 36.4297 26.5542C36.638 26.7625 36.7422 27.0099 36.7422 27.2964ZM39.7109 28.3511C39.6589 27.5959 39.5417 26.9448 39.3594 26.3979C39.125 25.7469 38.7604 25.187 38.2656 24.7183C37.7969 24.2235 37.237 23.8589 36.5859 23.6245C36.0391 23.4422 35.388 23.3381 34.6328 23.312C33.9036 23.2599 32.6927 23.2339 31 23.2339C29.3073 23.2339 28.0833 23.2599 27.3281 23.312C26.599 23.3381 25.9609 23.4422 25.4141 23.6245C24.763 23.8589 24.1901 24.2235 23.6953 24.7183C23.2266 25.187 22.875 25.7469 22.6406 26.3979C22.4583 26.9448 22.3411 27.5959 22.2891 28.3511C22.263 29.0802 22.25 30.2912 22.25 31.9839C22.25 33.6766 22.263 34.9006 22.2891 35.6558C22.3411 36.3849 22.4583 37.0229 22.6406 37.5698C22.875 38.2209 23.2266 38.7938 23.6953 39.2886C24.1901 39.7573 24.763 40.0959 25.4141 40.3042C25.9609 40.5125 26.599 40.6297 27.3281 40.6558C28.0833 40.7078 29.3073 40.7339 31 40.7339C32.6927 40.7339 33.9036 40.7078 34.6328 40.6558C35.388 40.6297 36.0391 40.5256 36.5859 40.3433C37.237 40.1089 37.7969 39.7573 38.2656 39.2886C38.7604 38.7938 39.125 38.2209 39.3594 37.5698C39.5417 37.0229 39.6458 36.3849 39.6719 35.6558C39.724 34.9006 39.75 33.6766 39.75 31.9839C39.75 30.2912 39.737 29.0802 39.7109 28.3511ZM37.8359 37.1401C37.5234 37.9214 36.9635 38.4813 36.1562 38.8198C35.7396 38.9761 35.0365 39.0802 34.0469 39.1323C33.5 39.1584 32.6927 39.1714 31.625 39.1714H30.375C29.3333 39.1714 28.526 39.1584 27.9531 39.1323C26.9896 39.0802 26.2865 38.9761 25.8438 38.8198C25.0625 38.5073 24.5026 37.9474 24.1641 37.1401C24.0078 36.6974 23.9036 35.9943 23.8516 35.0308C23.8255 34.4578 23.8125 33.6506 23.8125 32.6089V31.3589C23.8125 30.3172 23.8255 29.5099 23.8516 28.937C23.9036 27.9474 24.0078 27.2443 24.1641 26.8276C24.4766 26.0203 25.0365 25.4604 25.8438 25.1479C26.2865 24.9917 26.9896 24.8875 27.9531 24.8354C28.526 24.8094 29.3333 24.7964 30.375 24.7964H31.625C32.6667 24.7964 33.474 24.8094 34.0469 24.8354C35.0365 24.8875 35.7396 24.9917 36.1562 25.1479C36.9635 25.4604 37.5234 26.0203 37.8359 26.8276C37.9922 27.2443 38.0964 27.9474 38.1484 28.937C38.1745 29.4839 38.1875 30.2912 38.1875 31.3589V32.6089C38.1875 33.6506 38.1745 34.4578 38.1484 35.0308C38.0964 35.9943 37.9922 36.6974 37.8359 37.1401Z"
              fill="white" />
    </symbol>
    <symbol id="arrow"
            width="14"
            height="9"
            viewBox="0 0 14 9"
            fill="none"
            xmlns="http://www.w3.org/2000/svg">
        <path d="M6.33594 8.28906C6.6875 8.64062 7.27344 8.64062 7.625 8.28906L12.9375 2.97656C13.3281 2.58594 13.3281 2 12.9375 1.64844L12.0781 0.75C11.6875 0.398438 11.1016 0.398438 10.75 0.75L6.96094 4.53906L3.21094 0.75C2.85938 0.398438 2.27344 0.398438 1.88281 0.75L1.02344 1.64844C0.632812 2 0.632812 2.58594 1.02344 2.97656L6.33594 8.28906Z"
              fill="#333333" />
    </symbol>
    <symbol id="map"
            width="11"
            height="14"
            viewBox="0 0 11 14"
            fill="none"
            xmlns="http://www.w3.org/2000/svg">
        <path d="M5.2954 0.333496C2.61373 0.333496 0.431797 2.72616 0.431797 5.6635C0.414166 9.96016 5.11058 13.5228 5.2954 13.6668C5.2954 13.6668 10.1766 9.96016 10.159 5.66683C10.159 2.72616 7.97707 0.333496 5.2954 0.333496ZM5.2954 8.3335C3.95183 8.3335 2.8636 7.14016 2.8636 5.66683C2.8636 4.1935 3.95183 3.00016 5.2954 3.00016C6.63897 3.00016 7.7272 4.1935 7.7272 5.66683C7.7272 7.14016 6.63897 8.3335 5.2954 8.3335Z"
              fill="#E8C300" />
    </symbol>
    <symbol id="phone"
            width="10"
            height="11"
            viewBox="0 0 10 11"
            fill="none"
            xmlns="http://www.w3.org/2000/svg">
        <path d="M8.99236 9.14688L7.70664 10.6853C7.51685 10.9201 7.26529 10.9996 7.0203 11C5.93685 10.9608 4.91274 10.3189 4.07188 9.65969C2.69167 8.4485 1.42526 6.94668 0.630445 5.13179C0.325604 4.37075 -0.0320839 3.39971 0.00209048 2.55025C0.00513783 2.2307 0.0765264 1.91708 0.263099 1.7111L1.54881 0.161011C1.81579 -0.112916 2.07398 -0.0182063 2.24483 0.300867L3.27918 2.6668C3.38805 2.94709 3.3256 3.24741 3.16317 3.44769L2.68949 4.01877C2.66025 4.06709 2.64163 4.12209 2.64116 4.18195C2.8228 5.03007 3.37307 5.81177 3.85919 6.34974C4.3453 6.88771 4.86782 7.61655 5.54608 7.7891C5.62991 7.8173 5.7326 7.82721 5.79259 7.75996L6.34362 7.08398C6.53357 6.91032 6.80783 6.82543 7.01062 6.96743H7.02029L8.88601 8.29608C9.1599 8.50317 9.18846 8.90339 8.99236 9.14688Z"
              fill="#E8C300" />
    </symbol>
    <symbol id="email"
            width="14"
            height="11"
            viewBox="0 0 14 11"
            fill="none"
            xmlns="http://www.w3.org/2000/svg">
        <path d="M13.7032 0.28418L7.80202 6.72862C7.65015 6.89418 7.4447 6.98711 7.23055 6.98711C7.0164 6.98711 6.81095 6.89418 6.65908 6.72862L0.810598 0.333069C0.792618 0.405531 0.783085 0.4802 0.782227 0.555291V9.44418C0.782227 9.67993 0.867629 9.90602 1.01965 10.0727C1.17166 10.2394 1.37784 10.3331 1.59283 10.3331H12.9412C13.1562 10.3331 13.3624 10.2394 13.5144 10.0727C13.6664 9.90602 13.7518 9.67993 13.7518 9.44418V0.555291C13.7486 0.462693 13.7322 0.371218 13.7032 0.28418ZM2.14809 9.44418H1.58472V8.80862L4.53125 5.60418L5.10273 6.23085L2.14809 9.44418ZM12.9331 9.44418H12.3657L9.41107 6.23085L9.98254 5.60418L12.9291 8.80862L12.9331 9.44418Z"
              fill="#E8C300" />
    </symbol>
</svg>